<?xml version="1.0" encoding="UTF-8" standalone="no"?>
<!DOCTYPE svg PUBLIC "-//W3C//DTD SVG 1.1//EN"
 "http://www.w3.org/Graphics/SVG/1.1/DTD/svg11.dtd">
<!-- Generated by graphviz version 2.40.1 (20161225.0304)
 -->
<!-- Title: %3 Pages: 1 -->
<svg width="1076pt" height="392pt"
 viewBox="0.00 0.00 1076.00 391.65" xmlns="http://www.w3.org/2000/svg" xmlns:xlink="http://www.w3.org/1999/xlink">
<g id="graph0" class="graph" transform="scale(1 1) rotate(0) translate(4 387.6468)">
<title>%3</title>
<polygon fill="#ffffff" stroke="transparent" points="-4,4 -4,-387.6468 1072,-387.6468 1072,4 -4,4"/>
<!-- ROOT -->
<g id="node1" class="node">
<title>ROOT</title>
<ellipse fill="none" stroke="#000000" cx="571" cy="-365.6468" rx="27" ry="18"/>
<text text-anchor="start" x="564.2803" y="-362.4468" font-family="Times,serif" font-style="italic" font-size="14.00" fill="#000000">{}</text>
</g>
<!-- A -->
<g id="node2" class="node">
<title>A</title>
<text text-anchor="start" x="239.9448" y="-289.9909" font-family="Times,serif" text-decoration="line-through" font-size="14.00" fill="#000000">A</text>
<text text-anchor="start" x="241.5" y="-275.9909" font-family="Times,serif" font-size="14.00" fill="#000000">3</text>
</g>
<!-- ROOT&#45;&gt;A -->
<g id="edge1" class="edge">
<title>ROOT&#45;&gt;A</title>
<path fill="none" stroke="#000000" d="M543.9066,-364.4594C491.2551,-361.3316 372.282,-350.2175 281,-311.6468 279.4003,-310.9708 277.8014,-310.2147 276.2157,-309.3981"/>
<polygon fill="#000000" stroke="#000000" points="277.7593,-306.2455 267.365,-304.1937 274.2111,-312.2796 277.7593,-306.2455"/>
</g>
<!-- B -->
<g id="node3" class="node">
<title>B</title>
<ellipse fill="none" stroke="#000000" cx="317" cy="-286.1909" rx="27" ry="25.4118"/>
<text text-anchor="middle" x="317" y="-288.9909" font-family="Times,serif" font-size="14.00" fill="#000000">B</text>
<text text-anchor="middle" x="317" y="-274.9909" font-family="Times,serif" font-size="14.00" fill="#000000">4</text>
</g>
<!-- ROOT&#45;&gt;B -->
<g id="edge2" class="edge">
<title>ROOT&#45;&gt;B</title>
<path fill="none" stroke="#000000" d="M545.8506,-358.6272C510.6183,-348.6931 444.6389,-329.7233 389,-311.6468 376.7846,-307.6781 363.5038,-303.0678 351.7133,-298.8697"/>
<polygon fill="#000000" stroke="#000000" points="352.8103,-295.5449 342.2158,-295.4635 350.4471,-302.134 352.8103,-295.5449"/>
</g>
<!-- C -->
<g id="node4" class="node">
<title>C</title>
<ellipse fill="none" stroke="#000000" cx="425" cy="-286.1909" rx="27" ry="25.4118"/>
<text text-anchor="middle" x="425" y="-288.9909" font-family="Times,serif" font-size="14.00" fill="#000000">C</text>
<text text-anchor="middle" x="425" y="-274.9909" font-family="Times,serif" font-size="14.00" fill="#000000">4</text>
</g>
<!-- ROOT&#45;&gt;C -->
<g id="edge3" class="edge">
<title>ROOT&#45;&gt;C</title>
<path fill="none" stroke="#000000" d="M550.0818,-354.2627C525.9961,-341.1548 486.127,-319.4573 457.8813,-304.0855"/>
<polygon fill="#000000" stroke="#000000" points="459.2441,-300.8424 448.7875,-299.1365 455.8979,-306.9909 459.2441,-300.8424"/>
</g>
<!-- D -->
<g id="node5" class="node">
<title>D</title>
<ellipse fill="none" stroke="#000000" cx="535" cy="-286.1909" rx="27" ry="25.4118"/>
<text text-anchor="middle" x="535" y="-288.9909" font-family="Times,serif" font-size="14.00" fill="#000000">D</text>
<text text-anchor="middle" x="535" y="-274.9909" font-family="Times,serif" font-size="14.00" fill="#000000">6</text>
</g>
<!-- ROOT&#45;&gt;D -->
<g id="edge4" class="edge">
<title>ROOT&#45;&gt;D</title>
<path fill="none" stroke="#000000" d="M563.1885,-348.406C559.3021,-339.8282 554.4708,-329.165 549.9119,-319.103"/>
<polygon fill="#000000" stroke="#000000" points="552.9793,-317.3921 545.6642,-309.7279 546.6032,-320.2811 552.9793,-317.3921"/>
</g>
<!-- E -->
<g id="node6" class="node">
<title>E</title>
<ellipse fill="none" stroke="#000000" cx="607" cy="-286.1909" rx="27" ry="25.4118"/>
<text text-anchor="middle" x="607" y="-288.9909" font-family="Times,serif" font-size="14.00" fill="#000000">E</text>
<text text-anchor="middle" x="607" y="-274.9909" font-family="Times,serif" font-size="14.00" fill="#000000">4</text>
</g>
<!-- ROOT&#45;&gt;E -->
<g id="edge5" class="edge">
<title>ROOT&#45;&gt;E</title>
<path fill="none" stroke="#000000" d="M578.8115,-348.406C582.6979,-339.8282 587.5292,-329.165 592.0881,-319.103"/>
<polygon fill="#000000" stroke="#000000" points="595.3968,-320.2811 596.3358,-309.7279 589.0207,-317.3921 595.3968,-320.2811"/>
</g>
<!-- F -->
<g id="node7" class="node">
<title>F</title>
<ellipse fill="none" stroke="#000000" cx="679" cy="-286.1909" rx="27" ry="25.4118"/>
<text text-anchor="middle" x="679" y="-288.9909" font-family="Times,serif" font-size="14.00" fill="#000000">F</text>
<text text-anchor="middle" x="679" y="-274.9909" font-family="Times,serif" font-size="14.00" fill="#000000">4</text>
</g>
<!-- ROOT&#45;&gt;F -->
<g id="edge6" class="edge">
<title>ROOT&#45;&gt;F</title>
<path fill="none" stroke="#000000" d="M589.3207,-352.1682C605.7818,-340.0577 630.2492,-322.057 649.4706,-307.9158"/>
<polygon fill="#000000" stroke="#000000" points="651.6355,-310.6683 657.6163,-301.9229 647.4872,-305.0298 651.6355,-310.6683"/>
</g>
<!-- G -->
<g id="node8" class="node">
<title>G</title>
<ellipse fill="none" stroke="#000000" cx="823" cy="-286.1909" rx="27" ry="25.4118"/>
<text text-anchor="middle" x="823" y="-288.9909" font-family="Times,serif" font-size="14.00" fill="#000000">G</text>
<text text-anchor="middle" x="823" y="-274.9909" font-family="Times,serif" font-size="14.00" fill="#000000">5</text>
</g>
<!-- ROOT&#45;&gt;G -->
<g id="edge7" class="edge">
<title>ROOT&#45;&gt;G</title>
<path fill="none" stroke="#000000" d="M595.6217,-357.8835C640.4388,-343.7526 735.49,-313.7829 787.3774,-297.4228"/>
<polygon fill="#000000" stroke="#000000" points="788.667,-300.6861 797.1516,-294.3409 786.562,-294.0101 788.667,-300.6861"/>
</g>
<!-- H -->
<g id="node9" class="node">
<title>H</title>
<text text-anchor="start" x="889.9448" y="-289.9909" font-family="Times,serif" text-decoration="line-through" font-size="14.00" fill="#000000">H</text>
<text text-anchor="start" x="891.5" y="-275.9909" font-family="Times,serif" font-size="14.00" fill="#000000">2</text>
</g>
<!-- ROOT&#45;&gt;H -->
<g id="edge8" class="edge">
<title>ROOT&#45;&gt;H</title>
<path fill="none" stroke="#000000" d="M598.3137,-364.3987C650.8068,-361.1756 768.5846,-349.9179 859,-311.6468 860.4098,-311.05 861.8191,-310.3911 863.2193,-309.6835"/>
<polygon fill="#000000" stroke="#000000" points="865.3477,-312.4949 872.2381,-304.4468 861.8327,-306.4414 865.3477,-312.4949"/>
</g>
<!-- B C -->
<g id="node10" class="node">
<title>B C</title>
<text text-anchor="start" x="15.9121" y="-203.0792" font-family="Times,serif" text-decoration="line-through" font-size="14.00" fill="#000000">B C</text>
<text text-anchor="start" x="23.5" y="-189.0792" font-family="Times,serif" font-size="14.00" fill="#000000">2</text>
</g>
<!-- B&#45;&gt;B C -->
<g id="edge9" class="edge">
<title>B&#45;&gt;B C</title>
<path fill="none" stroke="#000000" d="M296.6165,-269.4105C291.7408,-266.0856 286.3816,-262.9445 281,-260.7351 190.1569,-223.4392 153.8431,-262.0309 63,-224.7351 61.3935,-224.0755 59.789,-223.3329 58.1987,-222.5272"/>
<polygon fill="#000000" stroke="#000000" points="59.7345,-219.3713 49.3322,-217.3608 56.2103,-225.4195 59.7345,-219.3713"/>
</g>
<!-- B D -->
<g id="node11" class="node">
<title>B D</title>
<ellipse fill="none" stroke="#000000" cx="100" cy="-199.2792" rx="27.5812" ry="25.4118"/>
<text text-anchor="middle" x="100" y="-202.0792" font-family="Times,serif" font-size="14.00" fill="#000000">B D</text>
<text text-anchor="middle" x="100" y="-188.0792" font-family="Times,serif" font-size="14.00" fill="#000000">4</text>
</g>
<!-- B&#45;&gt;B D -->
<g id="edge11" class="edge">
<title>B&#45;&gt;B D</title>
<path fill="none" stroke="#000000" d="M296.0914,-269.4687C291.3282,-266.2213 286.1482,-263.0976 281,-260.7351 221.0421,-233.2205 197.1335,-251.8637 137,-224.7351 134.5524,-223.6309 132.0938,-222.3631 129.6714,-220.9958"/>
<polygon fill="#000000" stroke="#000000" points="131.4882,-218.0041 121.142,-215.7223 127.8071,-223.9581 131.4882,-218.0041"/>
</g>
<!-- B E -->
<g id="node12" class="node">
<title>B E</title>
<ellipse fill="none" stroke="#000000" cx="245" cy="-199.2792" rx="27" ry="25.4118"/>
<text text-anchor="middle" x="245" y="-202.0792" font-family="Times,serif" font-size="14.00" fill="#000000">B E</text>
<text text-anchor="middle" x="245" y="-188.0792" font-family="Times,serif" font-size="14.00" fill="#000000">4</text>
</g>
<!-- B&#45;&gt;B E -->
<g id="edge13" class="edge">
<title>B&#45;&gt;B E</title>
<path fill="none" stroke="#000000" d="M300.3008,-266.0332C290.8272,-254.5976 278.822,-240.106 268.4197,-227.5493"/>
<polygon fill="#000000" stroke="#000000" points="270.9329,-225.0967 261.8581,-219.6287 265.5424,-229.5623 270.9329,-225.0967"/>
</g>
<!-- B F -->
<g id="node13" class="node">
<title>B F</title>
<text text-anchor="start" x="306.688" y="-203.0792" font-family="Times,serif" text-decoration="line-through" font-size="14.00" fill="#000000">B F</text>
<text text-anchor="start" x="313.5" y="-189.0792" font-family="Times,serif" font-size="14.00" fill="#000000">0</text>
</g>
<!-- B&#45;&gt;B F -->
<g id="edge15" class="edge">
<title>B&#45;&gt;B F</title>
<path fill="none" stroke="#000000" d="M317,-260.5846C317,-250.2197 317,-238.2151 317,-227.5908"/>
<polygon fill="#000000" stroke="#000000" points="320.5001,-227.5384 317,-217.5385 313.5001,-227.5385 320.5001,-227.5384"/>
</g>
<!-- B G -->
<g id="node14" class="node">
<title>B G</title>
<ellipse fill="none" stroke="#000000" cx="534" cy="-199.2792" rx="27.5812" ry="25.4118"/>
<text text-anchor="middle" x="534" y="-202.0792" font-family="Times,serif" font-size="14.00" fill="#000000">B G</text>
<text text-anchor="middle" x="534" y="-188.0792" font-family="Times,serif" font-size="14.00" fill="#000000">4</text>
</g>
<!-- B&#45;&gt;B G -->
<g id="edge17" class="edge">
<title>B&#45;&gt;B G</title>
<path fill="none" stroke="#000000" d="M342.285,-277.1255C356.0726,-272.214 373.4511,-266.0748 389,-260.7351 436.8533,-244.3017 451.7122,-247.2964 497,-224.7351 499.2594,-223.6095 501.5392,-222.3614 503.7979,-221.0399"/>
<polygon fill="#000000" stroke="#000000" points="505.7157,-223.9685 512.3183,-215.6826 501.9897,-218.0426 505.7157,-223.9685"/>
</g>
<!-- C&#45;&gt;B C -->
<g id="edge10" class="edge">
<title>C&#45;&gt;B C</title>
<path fill="none" stroke="#000000" d="M400.0756,-275.8773C386.3936,-270.6002 369.001,-264.5098 353,-260.7351 226.5916,-230.9144 184.1128,-271.6396 63,-224.7351 61.3806,-224.1079 59.7654,-223.3919 58.1665,-222.6079"/>
<polygon fill="#000000" stroke="#000000" points="59.6878,-219.4459 49.2701,-217.5165 56.2108,-225.5213 59.6878,-219.4459"/>
</g>
<!-- C D -->
<g id="node15" class="node">
<title>C D</title>
<text text-anchor="start" x="161.5259" y="-203.0792" font-family="Times,serif" text-decoration="line-through" font-size="14.00" fill="#000000">C D</text>
<text text-anchor="start" x="169.5" y="-189.0792" font-family="Times,serif" font-size="14.00" fill="#000000">3</text>
</g>
<!-- C&#45;&gt;C D -->
<g id="edge19" class="edge">
<title>C&#45;&gt;C D</title>
<path fill="none" stroke="#000000" d="M399.8693,-276.6465C386.1269,-271.5946 368.7424,-265.4741 353,-260.7351 289.8306,-241.7187 268.9579,-252.2496 209,-224.7351 207.6086,-224.0965 206.2148,-223.4024 204.8276,-222.6653"/>
<polygon fill="#000000" stroke="#000000" points="206.2413,-219.4328 195.8613,-217.3096 202.6516,-225.4424 206.2413,-219.4328"/>
</g>
<!-- C E -->
<g id="node16" class="node">
<title>C E</title>
<text text-anchor="start" x="378.3052" y="-203.0792" font-family="Times,serif" text-decoration="line-through" font-size="14.00" fill="#000000">C E</text>
<text text-anchor="start" x="385.5" y="-189.0792" font-family="Times,serif" font-size="14.00" fill="#000000">2</text>
</g>
<!-- C&#45;&gt;C E -->
<g id="edge21" class="edge">
<title>C&#45;&gt;C E</title>
<path fill="none" stroke="#000000" d="M415.1628,-262.4419C410.6222,-251.4798 405.2023,-238.3951 400.4763,-226.9855"/>
<polygon fill="#000000" stroke="#000000" points="403.6018,-225.3849 396.5413,-217.4855 397.1346,-228.0637 403.6018,-225.3849"/>
</g>
<!-- C F -->
<g id="node17" class="node">
<title>C F</title>
<text text-anchor="start" x="450.688" y="-203.0792" font-family="Times,serif" text-decoration="line-through" font-size="14.00" fill="#000000">C F</text>
<text text-anchor="start" x="457.5" y="-189.0792" font-family="Times,serif" font-size="14.00" fill="#000000">2</text>
</g>
<!-- C&#45;&gt;C F -->
<g id="edge23" class="edge">
<title>C&#45;&gt;C F</title>
<path fill="none" stroke="#000000" d="M434.8372,-262.4419C439.3778,-251.4798 444.7977,-238.3951 449.5237,-226.9855"/>
<polygon fill="#000000" stroke="#000000" points="452.8654,-228.0637 453.4587,-217.4855 446.3982,-225.3849 452.8654,-228.0637"/>
</g>
<!-- C G -->
<g id="node18" class="node">
<title>C G</title>
<text text-anchor="start" x="811.5259" y="-203.0792" font-family="Times,serif" text-decoration="line-through" font-size="14.00" fill="#000000">C G</text>
<text text-anchor="start" x="819.5" y="-189.0792" font-family="Times,serif" font-size="14.00" fill="#000000">2</text>
</g>
<!-- C&#45;&gt;C G -->
<g id="edge25" class="edge">
<title>C&#45;&gt;C G</title>
<path fill="none" stroke="#000000" d="M449.9661,-276.156C464.1369,-270.8287 482.3239,-264.6016 499,-260.7351 624.6625,-231.5987 666.7295,-271.3721 787,-224.7351 788.6192,-224.1072 790.2341,-223.3907 791.8328,-222.6062"/>
<polygon fill="#000000" stroke="#000000" points="793.7892,-225.5192 800.7286,-217.5132 790.3113,-219.4443 793.7892,-225.5192"/>
</g>
<!-- D&#45;&gt;B D -->
<g id="edge12" class="edge">
<title>D&#45;&gt;B D</title>
<path fill="none" stroke="#000000" d="M510.0541,-276.0675C495.8896,-270.7126 477.7022,-264.4873 461,-260.7351 319.6373,-228.977 272.7692,-275.3189 137,-224.7351 134.5706,-223.8299 132.1481,-222.7305 129.7717,-221.5025"/>
<polygon fill="#000000" stroke="#000000" points="131.3069,-218.3442 120.9175,-216.2681 127.7446,-224.37 131.3069,-218.3442"/>
</g>
<!-- D&#45;&gt;C D -->
<g id="edge20" class="edge">
<title>D&#45;&gt;C D</title>
<path fill="none" stroke="#000000" d="M510.0071,-276.269C495.828,-270.9771 477.6416,-264.7477 461,-260.7351 351.015,-234.2151 314.1214,-266.5621 209,-224.7351 207.3864,-224.093 205.776,-223.3648 204.181,-222.5708"/>
<polygon fill="#000000" stroke="#000000" points="205.7089,-219.4116 195.2981,-217.445 202.2102,-225.4746 205.7089,-219.4116"/>
</g>
<!-- D E -->
<g id="node19" class="node">
<title>D E</title>
<ellipse fill="none" stroke="#000000" cx="607" cy="-199.2792" rx="27" ry="25.4118"/>
<text text-anchor="middle" x="607" y="-202.0792" font-family="Times,serif" font-size="14.00" fill="#000000">D E</text>
<text text-anchor="middle" x="607" y="-188.0792" font-family="Times,serif" font-size="14.00" fill="#000000">4</text>
</g>
<!-- D&#45;&gt;D E -->
<g id="edge27" class="edge">
<title>D&#45;&gt;D E</title>
<path fill="none" stroke="#000000" d="M551.6992,-266.0332C561.1728,-254.5976 573.178,-240.106 583.5803,-227.5493"/>
<polygon fill="#000000" stroke="#000000" points="586.4576,-229.5623 590.1419,-219.6287 581.0671,-225.0967 586.4576,-229.5623"/>
</g>
<!-- D F -->
<g id="node20" class="node">
<title>D F</title>
<text text-anchor="start" x="668.3018" y="-203.0792" font-family="Times,serif" text-decoration="line-through" font-size="14.00" fill="#000000">D F</text>
<text text-anchor="start" x="675.5" y="-189.0792" font-family="Times,serif" font-size="14.00" fill="#000000">2</text>
</g>
<!-- D&#45;&gt;D F -->
<g id="edge29" class="edge">
<title>D&#45;&gt;D F</title>
<path fill="none" stroke="#000000" d="M556.3461,-270.2991C561.082,-267 566.1403,-263.6452 571,-260.7351 601.6943,-242.3542 612.3057,-243.116 643,-224.7351 643.9522,-224.1648 644.9121,-223.5775 645.8757,-222.9769"/>
<polygon fill="#000000" stroke="#000000" points="648.0855,-225.714 654.542,-217.3137 644.2562,-219.8542 648.0855,-225.714"/>
</g>
<!-- D G -->
<g id="node21" class="node">
<title>D G</title>
<ellipse fill="none" stroke="#000000" cx="896" cy="-199.2792" rx="28.1738" ry="25.4118"/>
<text text-anchor="middle" x="896" y="-202.0792" font-family="Times,serif" font-size="14.00" fill="#000000">D G</text>
<text text-anchor="middle" x="896" y="-188.0792" font-family="Times,serif" font-size="14.00" fill="#000000">4</text>
</g>
<!-- D&#45;&gt;D G -->
<g id="edge31" class="edge">
<title>D&#45;&gt;D G</title>
<path fill="none" stroke="#000000" d="M555.3207,-269.2531C560.1996,-265.9363 565.576,-262.8383 571,-260.7351 691.2705,-214.098 738.4322,-270.5981 859,-224.7351 861.3594,-223.8376 863.7137,-222.76 866.0266,-221.5622"/>
<polygon fill="#000000" stroke="#000000" points="867.8253,-224.5648 874.6646,-216.4732 864.2721,-218.5336 867.8253,-224.5648"/>
</g>
<!-- E&#45;&gt;B E -->
<g id="edge14" class="edge">
<title>E&#45;&gt;B E</title>
<path fill="none" stroke="#000000" d="M586.6807,-269.2496C581.8016,-265.9331 576.4249,-262.836 571,-260.7351 449.8872,-213.8305 402.1128,-271.6396 281,-224.7351 278.6266,-223.8159 276.2624,-222.7061 273.9451,-221.4706"/>
<polygon fill="#000000" stroke="#000000" points="275.6812,-218.43 265.3193,-216.2205 272.0417,-224.4095 275.6812,-218.43"/>
</g>
<!-- E&#45;&gt;C E -->
<g id="edge22" class="edge">
<title>E&#45;&gt;C E</title>
<path fill="none" stroke="#000000" d="M586.0972,-269.4561C581.3336,-266.2095 576.152,-263.0893 571,-260.7351 510.2132,-232.9587 485.7868,-252.5115 425,-224.7351 423.6076,-224.0988 422.213,-223.4066 420.825,-222.671"/>
<polygon fill="#000000" stroke="#000000" points="422.2371,-219.438 411.8558,-217.3217 418.6515,-225.45 422.2371,-219.438"/>
</g>
<!-- E&#45;&gt;D E -->
<g id="edge28" class="edge">
<title>E&#45;&gt;D E</title>
<path fill="none" stroke="#000000" d="M607,-260.5846C607,-252.6107 607,-243.6662 607,-235.1264"/>
<polygon fill="#000000" stroke="#000000" points="610.5001,-235.0028 607,-225.0028 603.5001,-235.0029 610.5001,-235.0028"/>
</g>
<!-- E F -->
<g id="node22" class="node">
<title>E F</title>
<text text-anchor="start" x="741.0811" y="-203.0792" font-family="Times,serif" text-decoration="line-through" font-size="14.00" fill="#000000">E F</text>
<text text-anchor="start" x="747.5" y="-189.0792" font-family="Times,serif" font-size="14.00" fill="#000000">0</text>
</g>
<!-- E&#45;&gt;E F -->
<g id="edge33" class="edge">
<title>E&#45;&gt;E F</title>
<path fill="none" stroke="#000000" d="M628.3461,-270.2991C633.082,-267 638.1403,-263.6452 643,-260.7351 673.6943,-242.3542 684.3057,-243.116 715,-224.7351 715.9522,-224.1648 716.9121,-223.5775 717.8757,-222.9769"/>
<polygon fill="#000000" stroke="#000000" points="720.0855,-225.714 726.542,-217.3137 716.2562,-219.8542 720.0855,-225.714"/>
</g>
<!-- E G -->
<g id="node23" class="node">
<title>E G</title>
<ellipse fill="none" stroke="#000000" cx="969" cy="-199.2792" rx="27" ry="25.4118"/>
<text text-anchor="middle" x="969" y="-202.0792" font-family="Times,serif" font-size="14.00" fill="#000000">E G</text>
<text text-anchor="middle" x="969" y="-188.0792" font-family="Times,serif" font-size="14.00" fill="#000000">4</text>
</g>
<!-- E&#45;&gt;E G -->
<g id="edge35" class="edge">
<title>E&#45;&gt;E G</title>
<path fill="none" stroke="#000000" d="M627.3193,-269.2496C632.1984,-265.9331 637.5751,-262.836 643,-260.7351 764.1128,-213.8305 811.8872,-271.6396 933,-224.7351 935.3734,-223.8159 937.7376,-222.7061 940.0549,-221.4706"/>
<polygon fill="#000000" stroke="#000000" points="941.9583,-224.4095 948.6807,-216.2205 938.3188,-218.43 941.9583,-224.4095"/>
</g>
<!-- F&#45;&gt;B F -->
<g id="edge16" class="edge">
<title>F&#45;&gt;B F</title>
<path fill="none" stroke="#000000" d="M658.6807,-269.2496C653.8016,-265.9331 648.4249,-262.836 643,-260.7351 521.8872,-213.8305 474.1128,-271.6396 353,-224.7351 351.3806,-224.1079 349.7654,-223.3919 348.1665,-222.6079"/>
<polygon fill="#000000" stroke="#000000" points="349.6878,-219.4459 339.2701,-217.5165 346.2108,-225.5213 349.6878,-219.4459"/>
</g>
<!-- F&#45;&gt;C F -->
<g id="edge24" class="edge">
<title>F&#45;&gt;C F</title>
<path fill="none" stroke="#000000" d="M658.0972,-269.4561C653.3336,-266.2095 648.152,-263.0893 643,-260.7351 582.2132,-232.9587 557.7868,-252.5115 497,-224.7351 495.6076,-224.0988 494.213,-223.4066 492.825,-222.671"/>
<polygon fill="#000000" stroke="#000000" points="494.2371,-219.438 483.8558,-217.3217 490.6515,-225.45 494.2371,-219.438"/>
</g>
<!-- F&#45;&gt;D F -->
<g id="edge30" class="edge">
<title>F&#45;&gt;D F</title>
<path fill="none" stroke="#000000" d="M679,-260.5846C679,-250.2197 679,-238.2151 679,-227.5908"/>
<polygon fill="#000000" stroke="#000000" points="682.5001,-227.5384 679,-217.5385 675.5001,-227.5385 682.5001,-227.5384"/>
</g>
<!-- F&#45;&gt;E F -->
<g id="edge34" class="edge">
<title>F&#45;&gt;E F</title>
<path fill="none" stroke="#000000" d="M695.6992,-266.0332C705.7446,-253.9073 718.6366,-238.3453 729.4456,-225.2976"/>
<polygon fill="#000000" stroke="#000000" points="732.1783,-227.4854 735.8626,-217.5517 726.7877,-223.0197 732.1783,-227.4854"/>
</g>
<!-- F G -->
<g id="node24" class="node">
<title>F G</title>
<text text-anchor="start" x="1030.3018" y="-203.0792" font-family="Times,serif" text-decoration="line-through" font-size="14.00" fill="#000000">F G</text>
<text text-anchor="start" x="1037.5" y="-189.0792" font-family="Times,serif" font-size="14.00" fill="#000000">1</text>
</g>
<!-- F&#45;&gt;F G -->
<g id="edge37" class="edge">
<title>F&#45;&gt;F G</title>
<path fill="none" stroke="#000000" d="M705.0797,-279.5199C726.8867,-274.0682 758.8553,-266.3691 787,-260.7351 883.2908,-241.4595 914.1569,-262.0309 1005,-224.7351 1006.6065,-224.0755 1008.211,-223.3329 1009.8013,-222.5272"/>
<polygon fill="#000000" stroke="#000000" points="1011.7897,-225.4195 1018.6678,-217.3608 1008.2655,-219.3713 1011.7897,-225.4195"/>
</g>
<!-- G&#45;&gt;B G -->
<g id="edge18" class="edge">
<title>G&#45;&gt;B G</title>
<path fill="none" stroke="#000000" d="M796.6802,-279.9044C733.1514,-264.7132 576.2405,-227.0811 571,-224.7351 568.5493,-223.6379 566.0883,-222.3753 563.6643,-221.0116"/>
<polygon fill="#000000" stroke="#000000" points="565.4796,-218.0191 555.1316,-215.7455 561.8031,-223.976 565.4796,-218.0191"/>
</g>
<!-- G&#45;&gt;C G -->
<g id="edge26" class="edge">
<title>G&#45;&gt;C G</title>
<path fill="none" stroke="#000000" d="M823,-260.5846C823,-250.2197 823,-238.2151 823,-227.5908"/>
<polygon fill="#000000" stroke="#000000" points="826.5001,-227.5384 823,-217.5385 819.5001,-227.5385 826.5001,-227.5384"/>
</g>
<!-- G&#45;&gt;D G -->
<g id="edge32" class="edge">
<title>G&#45;&gt;D G</title>
<path fill="none" stroke="#000000" d="M839.9312,-266.0332C849.5363,-254.5976 861.7083,-240.106 872.2551,-227.5493"/>
<polygon fill="#000000" stroke="#000000" points="875.1562,-229.5371 878.9078,-219.6287 869.7961,-225.035 875.1562,-229.5371"/>
</g>
<!-- G&#45;&gt;E G -->
<g id="edge36" class="edge">
<title>G&#45;&gt;E G</title>
<path fill="none" stroke="#000000" d="M844.3222,-270.259C849.0597,-266.9624 854.1245,-263.6188 859,-260.7351 890.4799,-242.1154 901.5201,-243.3547 933,-224.7351 934.9807,-223.5636 936.9926,-222.3161 939.0011,-221.0268"/>
<polygon fill="#000000" stroke="#000000" points="941.3198,-223.6862 947.6778,-215.2111 937.4224,-217.8715 941.3198,-223.6862"/>
</g>
<!-- G&#45;&gt;F G -->
<g id="edge38" class="edge">
<title>G&#45;&gt;F G</title>
<path fill="none" stroke="#000000" d="M843.9028,-269.4561C848.6664,-266.2095 853.848,-263.0893 859,-260.7351 919.7868,-232.9587 944.2132,-252.5115 1005,-224.7351 1006.3924,-224.0988 1007.787,-223.4066 1009.175,-222.671"/>
<polygon fill="#000000" stroke="#000000" points="1011.3485,-225.45 1018.1442,-217.3217 1007.7629,-219.438 1011.3485,-225.45"/>
</g>
<!-- B D E -->
<g id="node25" class="node">
<title>B D E</title>
<ellipse fill="none" stroke="#000000" cx="173" cy="-112.3675" rx="36.125" ry="25.4118"/>
<text text-anchor="middle" x="173" y="-115.1675" font-family="Times,serif" font-size="14.00" fill="#000000">B D E</text>
<text text-anchor="middle" x="173" y="-101.1675" font-family="Times,serif" font-size="14.00" fill="#000000">4</text>
</g>
<!-- B D&#45;&gt;B D E -->
<g id="edge39" class="edge">
<title>B D&#45;&gt;B D E</title>
<path fill="none" stroke="#000000" d="M116.9312,-179.1215C126.1217,-168.1795 137.6622,-154.4397 147.8805,-142.274"/>
<polygon fill="#000000" stroke="#000000" points="150.6149,-144.4605 154.3665,-134.5521 145.2548,-139.9583 150.6149,-144.4605"/>
</g>
<!-- B D G -->
<g id="node26" class="node">
<title>B D G</title>
<ellipse fill="none" stroke="#000000" cx="264" cy="-112.3675" rx="37.3298" ry="25.4118"/>
<text text-anchor="middle" x="264" y="-115.1675" font-family="Times,serif" font-size="14.00" fill="#000000">B D G</text>
<text text-anchor="middle" x="264" y="-101.1675" font-family="Times,serif" font-size="14.00" fill="#000000">4</text>
</g>
<!-- B D&#45;&gt;B D G -->
<g id="edge41" class="edge">
<title>B D&#45;&gt;B D G</title>
<path fill="none" stroke="#000000" d="M121.8789,-183.2489C126.7501,-179.9584 131.9656,-176.6422 137,-173.8234 171.374,-154.5768 182.7317,-155.3776 218,-137.8234 220.6046,-136.527 223.2737,-135.1588 225.9509,-133.7568"/>
<polygon fill="#000000" stroke="#000000" points="227.8357,-136.7179 235.0024,-128.9148 224.5338,-130.5455 227.8357,-136.7179"/>
</g>
<!-- B E&#45;&gt;B D E -->
<g id="edge40" class="edge">
<title>B E&#45;&gt;B D E</title>
<path fill="none" stroke="#000000" d="M228.3008,-179.1215C219.2362,-168.1795 207.8537,-154.4397 197.7754,-142.274"/>
<polygon fill="#000000" stroke="#000000" points="200.4531,-140.02 191.3783,-134.5521 195.0625,-144.4857 200.4531,-140.02"/>
</g>
<!-- B E G -->
<g id="node27" class="node">
<title>B E G</title>
<ellipse fill="none" stroke="#000000" cx="485" cy="-112.3675" rx="36.125" ry="25.4118"/>
<text text-anchor="middle" x="485" y="-115.1675" font-family="Times,serif" font-size="14.00" fill="#000000">B E G</text>
<text text-anchor="middle" x="485" y="-101.1675" font-family="Times,serif" font-size="14.00" fill="#000000">4</text>
</g>
<!-- B E&#45;&gt;B E G -->
<g id="edge43" class="edge">
<title>B E&#45;&gt;B E G</title>
<path fill="none" stroke="#000000" d="M265.9961,-182.7419C270.7538,-179.483 275.9095,-176.3078 281,-173.8234 333.052,-148.4193 397.7521,-131.0998 440.1521,-121.4795"/>
<polygon fill="#000000" stroke="#000000" points="441.1618,-124.8406 450.1657,-119.2566 439.6448,-118.007 441.1618,-124.8406"/>
</g>
<!-- B G&#45;&gt;B D G -->
<g id="edge42" class="edge">
<title>B G&#45;&gt;B D G</title>
<path fill="none" stroke="#000000" d="M512.8345,-182.8877C507.8346,-179.5427 502.3857,-176.295 497,-173.8234 435.5414,-145.6182 358.8027,-128.5301 310.5816,-119.7649"/>
<polygon fill="#000000" stroke="#000000" points="310.9021,-116.2672 300.4448,-117.9688 309.6808,-123.1599 310.9021,-116.2672"/>
</g>
<!-- B G&#45;&gt;B E G -->
<g id="edge44" class="edge">
<title>B G&#45;&gt;B E G</title>
<path fill="none" stroke="#000000" d="M521.1258,-176.4442C515.7308,-166.875 509.3567,-155.5692 503.4762,-145.1388"/>
<polygon fill="#000000" stroke="#000000" points="506.4326,-143.2559 498.4725,-136.2638 500.3349,-146.6937 506.4326,-143.2559"/>
</g>
<!-- D E G -->
<g id="node28" class="node">
<title>D E G</title>
<ellipse fill="none" stroke="#000000" cx="656" cy="-112.3675" rx="36.7176" ry="25.4118"/>
<text text-anchor="middle" x="656" y="-115.1675" font-family="Times,serif" font-size="14.00" fill="#000000">D E G</text>
<text text-anchor="middle" x="656" y="-101.1675" font-family="Times,serif" font-size="14.00" fill="#000000">4</text>
</g>
<!-- D E&#45;&gt;D E G -->
<g id="edge45" class="edge">
<title>D E&#45;&gt;D E G</title>
<path fill="none" stroke="#000000" d="M619.8742,-176.4442C625.2692,-166.875 631.6433,-155.5692 637.5238,-145.1388"/>
<polygon fill="#000000" stroke="#000000" points="640.6651,-146.6937 642.5275,-136.2638 634.5674,-143.2559 640.6651,-146.6937"/>
</g>
<!-- D G&#45;&gt;D E G -->
<g id="edge46" class="edge">
<title>D G&#45;&gt;D E G</title>
<path fill="none" stroke="#000000" d="M874.3718,-182.7667C869.4849,-179.5062 864.1997,-176.3242 859,-173.8234 807.3439,-148.9792 743.4503,-131.6258 701.3012,-121.8395"/>
<polygon fill="#000000" stroke="#000000" points="701.8651,-118.3784 691.3378,-119.5731 700.3124,-125.2041 701.8651,-118.3784"/>
</g>
<!-- B D E G -->
<g id="node29" class="node">
<title>B D E G</title>
<ellipse fill="none" stroke="#000000" cx="218" cy="-25.4558" rx="45.8736" ry="25.4118"/>
<text text-anchor="middle" x="218" y="-28.2558" font-family="Times,serif" font-size="14.00" fill="#000000">B D E G</text>
<text text-anchor="middle" x="218" y="-14.2558" font-family="Times,serif" font-size="14.00" fill="#000000">4</text>
</g>
<!-- B D E&#45;&gt;B D E G -->
<g id="edge47" class="edge">
<title>B D E&#45;&gt;B D E G</title>
<path fill="none" stroke="#000000" d="M185.535,-88.1578C190.186,-79.1749 195.549,-68.8171 200.559,-59.1409"/>
<polygon fill="#000000" stroke="#000000" points="203.7297,-60.6292 205.2195,-50.1397 197.5135,-57.4106 203.7297,-60.6292"/>
</g>
<!-- B D G&#45;&gt;B D E G -->
<g id="edge48" class="edge">
<title>B D G&#45;&gt;B D E G</title>
<path fill="none" stroke="#000000" d="M251.1864,-88.1578C246.432,-79.1749 240.9499,-68.8171 235.8286,-59.1409"/>
<polygon fill="#000000" stroke="#000000" points="238.8359,-57.3408 231.0645,-50.1397 232.649,-60.6153 238.8359,-57.3408"/>
</g>
</g>
</svg>
