<?xml version="1.0" encoding="UTF-8" standalone="no"?>
<!DOCTYPE svg PUBLIC "-//W3C//DTD SVG 1.1//EN"
 "http://www.w3.org/Graphics/SVG/1.1/DTD/svg11.dtd">
<!-- Generated by graphviz version 2.40.1 (20161225.0304)
 -->
<!-- Title: %3 Pages: 1 -->
<svg width="1482pt" height="432pt"
 viewBox="0.00 0.00 1481.50 432.00" xmlns="http://www.w3.org/2000/svg" xmlns:xlink="http://www.w3.org/1999/xlink">
<g id="graph0" class="graph" transform="scale(1 1) rotate(0) translate(4 428)">
<title>%3</title>
<polygon fill="#ffffff" stroke="transparent" points="-4,4 -4,-428 1477.5,-428 1477.5,4 -4,4"/>
<!-- 0 -->
<g id="node1" class="node">
<title>0</title>
<polygon fill="none" stroke="#000000" points="412.5,-397 412.5,-417 1429.5,-417 1429.5,-397 412.5,-397"/>
<text text-anchor="start" x="730.0688" y="-403.8" font-family="Times,serif" font-weight="bold" font-size="14.00" fill="#000000">B</text>
<text text-anchor="start" x="739.4067" y="-403.8" font-family="Times,serif" font-size="14.00" fill="#000000"> &#160;&#160;is choosen as split attribute, since is has the least Post Split Gini:</text>
<polygon fill="none" stroke="#000000" points="412.5,-375 412.5,-395 511.5,-395 511.5,-375 412.5,-375"/>
<text text-anchor="start" x="415.1328" y="-381.8" font-family="Times,serif" font-size="14.00" fill="#000000"> </text>
<text text-anchor="start" x="418.6328" y="-381.8" font-family="Times,serif" font-weight="bold" font-size="14.00" fill="#000000">Split Attribute</text>
<text text-anchor="start" x="498.3672" y="-381.8" font-family="Times,serif" font-size="14.00" fill="#000000"> &#160;&#160;</text>
<polygon fill="none" stroke="#000000" points="513.5,-375 513.5,-395 1429.5,-395 1429.5,-375 513.5,-375"/>
<text text-anchor="start" x="827.9316" y="-381.8" font-family="Times,serif" font-weight="bold" font-size="14.00" fill="#000000">Post Split Gini (Gain = Base Gini &#45; Post Split Gini)</text>
<polygon fill="none" stroke="#000000" points="412.5,-353 412.5,-373 511.5,-373 511.5,-353 412.5,-353"/>
<text text-anchor="start" x="456.9448" y="-358.8" font-family="Times,serif" font-size="14.00" fill="#000000">A</text>
<polygon fill="none" stroke="#000000" points="513.5,-353 513.5,-373 1429.5,-373 1429.5,-353 513.5,-353"/>
<text text-anchor="start" x="778.0327" y="-358.8" font-family="Times,serif" font-size="14.00" fill="#000000">0.3643 = (8 * (1 &#45; (3/8)^2 &#45; (5/8)^2) + 7 * (1 &#45; (1/7)^2 &#45; (6/7)^2)) / 15</text>
<polygon fill="none" stroke="#000000" points="412.5,-331 412.5,-351 511.5,-351 511.5,-331 412.5,-331"/>
<text text-anchor="start" x="457.3311" y="-336.8" font-family="Times,serif" font-size="14.00" fill="#000000">B</text>
<polygon fill="none" stroke="#000000" points="513.5,-331 513.5,-351 1429.5,-351 1429.5,-331 513.5,-331"/>
<text text-anchor="start" x="725.7002" y="-336.8" font-family="Times,serif" font-size="14.00" fill="#000000">0.2167 = (8 * (1 &#45; (1/8)^2 &#45; (7/8)^2) + 3 * (1 &#45; (3/3)^2) + 4 * (1 &#45; (3/4)^2 &#45; (1/4)^2)) / 15</text>
<polygon fill="none" stroke="#000000" points="412.5,-309 412.5,-329 511.5,-329 511.5,-309 412.5,-309"/>
<text text-anchor="start" x="457.3311" y="-314.8" font-family="Times,serif" font-size="14.00" fill="#000000">C</text>
<polygon fill="none" stroke="#000000" points="513.5,-309 513.5,-329 1429.5,-329 1429.5,-309 513.5,-309"/>
<text text-anchor="start" x="594.8125" y="-314.8" font-family="Times,serif" font-size="14.00" fill="#000000">0.3156 = (2 * (1 &#45; (2/2)^2) + 3 * (1 &#45; (3/3)^2) + 3 * (1 &#45; (1/3)^2 &#45; (2/3)^2) + 2 * (1 &#45; (1/2)^2 &#45; (1/2)^2) + 5 * (1 &#45; (2/5)^2 &#45; (3/5)^2)) / 15</text>
<polygon fill="none" stroke="#000000" points="412.5,-287 412.5,-307 511.5,-307 511.5,-287 412.5,-287"/>
<text text-anchor="start" x="456.9448" y="-292.8" font-family="Times,serif" font-size="14.00" fill="#000000">D</text>
<polygon fill="none" stroke="#000000" points="513.5,-287 513.5,-307 1429.5,-307 1429.5,-287 513.5,-287"/>
<text text-anchor="start" x="516.3701" y="-292.8" font-family="Times,serif" font-size="14.00" fill="#000000">0.2489 = (1 * (1 &#45; (1/1)^2) + 5 * (1 &#45; (2/5)^2 &#45; (3/5)^2) + 3 * (1 &#45; (2/3)^2 &#45; (1/3)^2) + 2 * (1 &#45; (2/2)^2) + 1 * (1 &#45; (1/1)^2) + 2 * (1 &#45; (2/2)^2) + 1 * (1 &#45; (1/1)^2)) / 15</text>
<polygon fill="none" stroke="#000000" points="409,-284 409,-420 1432,-420 1432,-284 409,-284"/>
</g>
<!-- 1 -->
<g id="node2" class="node">
<title>1</title>
<polygon fill="none" stroke="#000000" points="11.5,-203 11.5,-223 864.5,-223 864.5,-203 11.5,-203"/>
<text text-anchor="start" x="247.0688" y="-209.8" font-family="Times,serif" font-weight="bold" font-size="14.00" fill="#000000">C</text>
<text text-anchor="start" x="256.4067" y="-209.8" font-family="Times,serif" font-size="14.00" fill="#000000"> &#160;&#160;is choosen as split attribute, since is has the least Post Split Gini:</text>
<polygon fill="none" stroke="#000000" points="11.5,-181 11.5,-201 110.5,-201 110.5,-181 11.5,-181"/>
<text text-anchor="start" x="14.1328" y="-187.8" font-family="Times,serif" font-size="14.00" fill="#000000"> </text>
<text text-anchor="start" x="17.6328" y="-187.8" font-family="Times,serif" font-weight="bold" font-size="14.00" fill="#000000">Split Attribute</text>
<text text-anchor="start" x="97.3672" y="-187.8" font-family="Times,serif" font-size="14.00" fill="#000000"> &#160;&#160;</text>
<polygon fill="none" stroke="#000000" points="112.5,-181 112.5,-201 864.5,-201 864.5,-181 112.5,-181"/>
<text text-anchor="start" x="344.9316" y="-187.8" font-family="Times,serif" font-weight="bold" font-size="14.00" fill="#000000">Post Split Gini (Gain = Base Gini &#45; Post Split Gini)</text>
<polygon fill="none" stroke="#000000" points="11.5,-159 11.5,-179 110.5,-179 110.5,-159 11.5,-159"/>
<text text-anchor="start" x="55.9448" y="-164.8" font-family="Times,serif" font-size="14.00" fill="#000000">A</text>
<polygon fill="none" stroke="#000000" points="112.5,-159 112.5,-179 864.5,-179 864.5,-159 112.5,-159"/>
<text text-anchor="start" x="324.7554" y="-164.8" font-family="Times,serif" font-size="14.00" fill="#000000">0.2083 = (2 * (1 &#45; (2/2)^2) + 6 * (1 &#45; (1/6)^2 &#45; (5/6)^2)) / 8</text>
<polygon fill="none" stroke="#000000" points="11.5,-137 11.5,-157 110.5,-157 110.5,-137 11.5,-137"/>
<text text-anchor="start" x="56.3311" y="-142.8" font-family="Times,serif" font-size="14.00" fill="#000000">B</text>
<polygon fill="none" stroke="#000000" points="112.5,-137 112.5,-157 864.5,-157 864.5,-137 112.5,-137"/>
<text text-anchor="start" x="377.0879" y="-142.8" font-family="Times,serif" font-size="14.00" fill="#000000">0.2188 = (8 * (1 &#45; (1/8)^2 &#45; (7/8)^2)) / 8</text>
<polygon fill="none" stroke="#000000" points="11.5,-115 11.5,-135 110.5,-135 110.5,-115 11.5,-115"/>
<text text-anchor="start" x="56.3311" y="-120.8" font-family="Times,serif" font-size="14.00" fill="#000000">C</text>
<polygon fill="none" stroke="#000000" points="112.5,-115 112.5,-135 864.5,-135 864.5,-115 112.5,-115"/>
<text text-anchor="start" x="193.9805" y="-120.8" font-family="Times,serif" font-size="14.00" fill="#000000">0.0000 = (1 * (1 &#45; (1/1)^2) + 1 * (1 &#45; (1/1)^2) + 2 * (1 &#45; (2/2)^2) + 1 * (1 &#45; (1/1)^2) + 3 * (1 &#45; (3/3)^2)) / 8</text>
<polygon fill="none" stroke="#000000" points="11.5,-93 11.5,-113 110.5,-113 110.5,-93 11.5,-93"/>
<text text-anchor="start" x="55.9448" y="-98.8" font-family="Times,serif" font-size="14.00" fill="#000000">D</text>
<polygon fill="none" stroke="#000000" points="112.5,-93 112.5,-113 864.5,-113 864.5,-93 112.5,-93"/>
<text text-anchor="start" x="115.4253" y="-98.8" font-family="Times,serif" font-size="14.00" fill="#000000">0.1250 = (1 * (1 &#45; (1/1)^2) + 2 * (1 &#45; (1/2)^2 &#45; (1/2)^2) + 2 * (1 &#45; (2/2)^2) + 1 * (1 &#45; (1/1)^2) + 1 * (1 &#45; (1/1)^2) + 1 * (1 &#45; (1/1)^2)) / 8</text>
<polygon fill="none" stroke="#000000" points="8,-90 8,-226 867,-226 867,-90 8,-90"/>
</g>
<!-- 0&#45;&gt;1 -->
<g id="edge1" class="edge">
<title>0&#45;&gt;1</title>
<path fill="none" stroke="#000000" d="M740.9919,-279.8994C703.638,-264.896 664.1618,-249.0402 626.4786,-233.9044"/>
<polygon fill="#000000" stroke="#000000" points="627.5231,-230.5522 616.9391,-230.0728 624.914,-237.0479 627.5231,-230.5522"/>
<text text-anchor="middle" x="697.3931" y="-250.8" font-family="Times,serif" font-size="14.00" fill="#000000">F</text>
</g>
<!-- 7 -->
<g id="node8" class="node">
<title>7</title>
<text text-anchor="middle" x="920.5" y="-153.8" font-family="Times,serif" font-size="14.00" fill="#000000">N</text>
</g>
<!-- 0&#45;&gt;7 -->
<g id="edge7" class="edge">
<title>0&#45;&gt;7</title>
<path fill="none" stroke="#000000" d="M920.5,-279.7616C920.5,-247.2924 920.5,-210.8562 920.5,-186.3752"/>
<polygon fill="#000000" stroke="#000000" points="924.0001,-186.3438 920.5,-176.3439 917.0001,-186.3439 924.0001,-186.3438"/>
<text text-anchor="middle" x="925.5552" y="-250.8" font-family="Times,serif" font-size="14.00" fill="#000000">K</text>
</g>
<!-- 8 -->
<g id="node9" class="node">
<title>8</title>
<polygon fill="none" stroke="#000000" points="976.5,-203 976.5,-223 1462.5,-223 1462.5,-203 976.5,-203"/>
<text text-anchor="start" x="1028.5688" y="-209.8" font-family="Times,serif" font-weight="bold" font-size="14.00" fill="#000000">C</text>
<text text-anchor="start" x="1037.9067" y="-209.8" font-family="Times,serif" font-size="14.00" fill="#000000"> &#160;&#160;is choosen as split attribute, since is has the least Post Split Gini:</text>
<polygon fill="none" stroke="#000000" points="976.5,-181 976.5,-201 1075.5,-201 1075.5,-181 976.5,-181"/>
<text text-anchor="start" x="979.1328" y="-187.8" font-family="Times,serif" font-size="14.00" fill="#000000"> </text>
<text text-anchor="start" x="982.6328" y="-187.8" font-family="Times,serif" font-weight="bold" font-size="14.00" fill="#000000">Split Attribute</text>
<text text-anchor="start" x="1062.3672" y="-187.8" font-family="Times,serif" font-size="14.00" fill="#000000"> &#160;&#160;</text>
<polygon fill="none" stroke="#000000" points="1077.5,-181 1077.5,-201 1462.5,-201 1462.5,-181 1077.5,-181"/>
<text text-anchor="start" x="1126.4316" y="-187.8" font-family="Times,serif" font-weight="bold" font-size="14.00" fill="#000000">Post Split Gini (Gain = Base Gini &#45; Post Split Gini)</text>
<polygon fill="none" stroke="#000000" points="976.5,-159 976.5,-179 1075.5,-179 1075.5,-159 976.5,-159"/>
<text text-anchor="start" x="1020.9448" y="-164.8" font-family="Times,serif" font-size="14.00" fill="#000000">A</text>
<polygon fill="none" stroke="#000000" points="1077.5,-159 1077.5,-179 1462.5,-179 1462.5,-159 1077.5,-159"/>
<text text-anchor="start" x="1158.5879" y="-164.8" font-family="Times,serif" font-size="14.00" fill="#000000">0.3750 = (4 * (1 &#45; (3/4)^2 &#45; (1/4)^2)) / 4</text>
<polygon fill="none" stroke="#000000" points="976.5,-137 976.5,-157 1075.5,-157 1075.5,-137 976.5,-137"/>
<text text-anchor="start" x="1021.3311" y="-142.8" font-family="Times,serif" font-size="14.00" fill="#000000">B</text>
<polygon fill="none" stroke="#000000" points="1077.5,-137 1077.5,-157 1462.5,-157 1462.5,-137 1077.5,-137"/>
<text text-anchor="start" x="1158.5879" y="-142.8" font-family="Times,serif" font-size="14.00" fill="#000000">0.3750 = (4 * (1 &#45; (3/4)^2 &#45; (1/4)^2)) / 4</text>
<polygon fill="none" stroke="#000000" points="976.5,-115 976.5,-135 1075.5,-135 1075.5,-115 976.5,-115"/>
<text text-anchor="start" x="1021.3311" y="-120.8" font-family="Times,serif" font-size="14.00" fill="#000000">C</text>
<polygon fill="none" stroke="#000000" points="1077.5,-115 1077.5,-135 1462.5,-135 1462.5,-115 1077.5,-115"/>
<text text-anchor="start" x="1080.1455" y="-120.8" font-family="Times,serif" font-size="14.00" fill="#000000">0.0000 = (1 * (1 &#45; (1/1)^2) + 1 * (1 &#45; (1/1)^2) + 2 * (1 &#45; (2/2)^2)) / 4</text>
<polygon fill="none" stroke="#000000" points="976.5,-93 976.5,-113 1075.5,-113 1075.5,-93 976.5,-93"/>
<text text-anchor="start" x="1020.9448" y="-98.8" font-family="Times,serif" font-size="14.00" fill="#000000">D</text>
<polygon fill="none" stroke="#000000" points="1077.5,-93 1077.5,-113 1462.5,-113 1462.5,-93 1077.5,-93"/>
<text text-anchor="start" x="1106.2554" y="-98.8" font-family="Times,serif" font-size="14.00" fill="#000000">0.2500 = (2 * (1 &#45; (1/2)^2 &#45; (1/2)^2) + 2 * (1 &#45; (2/2)^2)) / 4</text>
<polygon fill="none" stroke="#000000" points="973.5,-90 973.5,-226 1465.5,-226 1465.5,-90 973.5,-90"/>
</g>
<!-- 0&#45;&gt;8 -->
<g id="edge8" class="edge">
<title>0&#45;&gt;8</title>
<path fill="none" stroke="#000000" d="M1031.8366,-279.7616C1053.9205,-265.4328 1077.1952,-250.3316 1099.5515,-235.8261"/>
<polygon fill="#000000" stroke="#000000" points="1101.5866,-238.6779 1108.0704,-230.2988 1097.7765,-232.8057 1101.5866,-238.6779"/>
<text text-anchor="middle" x="1083.7759" y="-250.8" font-family="Times,serif" font-size="14.00" fill="#000000">T</text>
</g>
<!-- 2 -->
<g id="node3" class="node">
<title>2</title>
<text text-anchor="middle" x="293.5" y="-13.8" font-family="Times,serif" font-size="14.00" fill="#000000">N</text>
</g>
<!-- 1&#45;&gt;2 -->
<g id="edge2" class="edge">
<title>1&#45;&gt;2</title>
<path fill="none" stroke="#000000" d="M363.3909,-85.9495C347.64,-70.6361 332.0238,-55.4537 319.5609,-43.337"/>
<polygon fill="#000000" stroke="#000000" points="321.8452,-40.6764 312.2355,-36.215 316.9657,-45.6953 321.8452,-40.6764"/>
<text text-anchor="middle" x="349.1689" y="-56.8" font-family="Times,serif" font-size="14.00" fill="#000000">B</text>
</g>
<!-- 3 -->
<g id="node4" class="node">
<title>3</title>
<text text-anchor="middle" x="365.5" y="-13.8" font-family="Times,serif" font-size="14.00" fill="#000000">N</text>
</g>
<!-- 1&#45;&gt;3 -->
<g id="edge3" class="edge">
<title>1&#45;&gt;3</title>
<path fill="none" stroke="#000000" d="M400.4454,-85.9495C393.0158,-71.5029 385.646,-57.1729 379.6035,-45.4235"/>
<polygon fill="#000000" stroke="#000000" points="382.5538,-43.5072 374.8677,-36.215 376.3288,-46.7087 382.5538,-43.5072"/>
<text text-anchor="middle" x="396.5552" y="-56.8" font-family="Times,serif" font-size="14.00" fill="#000000">G</text>
</g>
<!-- 4 -->
<g id="node5" class="node">
<title>4</title>
<text text-anchor="middle" x="437.5" y="-13.8" font-family="Times,serif" font-size="14.00" fill="#000000">N</text>
</g>
<!-- 1&#45;&gt;4 -->
<g id="edge4" class="edge">
<title>1&#45;&gt;4</title>
<path fill="none" stroke="#000000" d="M437.5,-85.9495C437.5,-71.9363 437.5,-58.0328 437.5,-46.4878"/>
<polygon fill="#000000" stroke="#000000" points="441.0001,-46.215 437.5,-36.215 434.0001,-46.2151 441.0001,-46.215"/>
<text text-anchor="middle" x="442.5552" y="-56.8" font-family="Times,serif" font-size="14.00" fill="#000000">H</text>
</g>
<!-- 5 -->
<g id="node6" class="node">
<title>5</title>
<text text-anchor="middle" x="509.5" y="-13.8" font-family="Times,serif" font-size="14.00" fill="#000000">J</text>
</g>
<!-- 1&#45;&gt;5 -->
<g id="edge5" class="edge">
<title>1&#45;&gt;5</title>
<path fill="none" stroke="#000000" d="M474.5546,-85.9495C481.9842,-71.5029 489.354,-57.1729 495.3965,-45.4235"/>
<polygon fill="#000000" stroke="#000000" points="498.6712,-46.7087 500.1323,-36.215 492.4462,-43.5072 498.6712,-46.7087"/>
<text text-anchor="middle" x="495.1689" y="-56.8" font-family="Times,serif" font-size="14.00" fill="#000000">R</text>
</g>
<!-- 6 -->
<g id="node7" class="node">
<title>6</title>
<text text-anchor="middle" x="581.5" y="-13.8" font-family="Times,serif" font-size="14.00" fill="#000000">N</text>
</g>
<!-- 1&#45;&gt;6 -->
<g id="edge6" class="edge">
<title>1&#45;&gt;6</title>
<path fill="none" stroke="#000000" d="M511.6091,-85.9495C527.36,-70.6361 542.9762,-55.4537 555.4391,-43.337"/>
<polygon fill="#000000" stroke="#000000" points="558.0343,-45.6953 562.7645,-36.215 553.1548,-40.6764 558.0343,-45.6953"/>
<text text-anchor="middle" x="547.3931" y="-56.8" font-family="Times,serif" font-size="14.00" fill="#000000">S</text>
</g>
<!-- 9 -->
<g id="node10" class="node">
<title>9</title>
<text text-anchor="middle" x="1147.5" y="-13.8" font-family="Times,serif" font-size="14.00" fill="#000000">N</text>
</g>
<!-- 8&#45;&gt;9 -->
<g id="edge9" class="edge">
<title>8&#45;&gt;9</title>
<path fill="none" stroke="#000000" d="M1182.4454,-85.9495C1175.0158,-71.5029 1167.646,-57.1729 1161.6035,-45.4235"/>
<polygon fill="#000000" stroke="#000000" points="1164.5538,-43.5072 1156.8677,-36.215 1158.3288,-46.7087 1164.5538,-43.5072"/>
<text text-anchor="middle" x="1178.5552" y="-56.8" font-family="Times,serif" font-size="14.00" fill="#000000">G</text>
</g>
<!-- 10 -->
<g id="node11" class="node">
<title>10</title>
<text text-anchor="middle" x="1219.5" y="-13.8" font-family="Times,serif" font-size="14.00" fill="#000000">J</text>
</g>
<!-- 8&#45;&gt;10 -->
<g id="edge10" class="edge">
<title>8&#45;&gt;10</title>
<path fill="none" stroke="#000000" d="M1219.5,-85.9495C1219.5,-71.9363 1219.5,-58.0328 1219.5,-46.4878"/>
<polygon fill="#000000" stroke="#000000" points="1223.0001,-46.215 1219.5,-36.215 1216.0001,-46.2151 1223.0001,-46.215"/>
<text text-anchor="middle" x="1224.5552" y="-56.8" font-family="Times,serif" font-size="14.00" fill="#000000">H</text>
</g>
<!-- 11 -->
<g id="node12" class="node">
<title>11</title>
<text text-anchor="middle" x="1291.5" y="-13.8" font-family="Times,serif" font-size="14.00" fill="#000000">J</text>
</g>
<!-- 8&#45;&gt;11 -->
<g id="edge11" class="edge">
<title>8&#45;&gt;11</title>
<path fill="none" stroke="#000000" d="M1256.5546,-85.9495C1263.9842,-71.5029 1271.354,-57.1729 1277.3965,-45.4235"/>
<polygon fill="#000000" stroke="#000000" points="1280.6712,-46.7087 1282.1323,-36.215 1274.4462,-43.5072 1280.6712,-46.7087"/>
<text text-anchor="middle" x="1275.3931" y="-56.8" font-family="Times,serif" font-size="14.00" fill="#000000">S</text>
</g>
</g>
</svg>
