<?xml version="1.0" encoding="UTF-8" standalone="no"?>
<!DOCTYPE svg PUBLIC "-//W3C//DTD SVG 1.1//EN"
 "http://www.w3.org/Graphics/SVG/1.1/DTD/svg11.dtd">
<!-- Generated by graphviz version 2.40.1 (20161225.0304)
 -->
<!-- Title: %3 Pages: 1 -->
<svg width="314pt" height="260pt"
 viewBox="0.00 0.00 314.00 260.00" xmlns="http://www.w3.org/2000/svg" xmlns:xlink="http://www.w3.org/1999/xlink">
<g id="graph0" class="graph" transform="scale(1 1) rotate(0) translate(4 256)">
<title>%3</title>
<polygon fill="#ffffff" stroke="transparent" points="-4,4 -4,-256 310,-256 310,4 -4,4"/>
<!-- ABCDEF -->
<g id="node1" class="node">
<title>ABCDEF</title>
<ellipse fill="none" stroke="#000000" cx="134" cy="-18" rx="44.9941" ry="18"/>
<text text-anchor="middle" x="134" y="-13.8" font-family="Times,serif" font-size="14.00" fill="#000000">ABCDEF</text>
</g>
<!-- DEF -->
<g id="node2" class="node">
<title>DEF</title>
<ellipse fill="none" stroke="#000000" cx="98" cy="-90" rx="27" ry="18"/>
<text text-anchor="middle" x="98" y="-85.8" font-family="Times,serif" font-size="14.00" fill="#000000">DEF</text>
</g>
<!-- DEF&#45;&gt;ABCDEF -->
<g id="edge5" class="edge">
<title>DEF&#45;&gt;ABCDEF</title>
<path fill="none" stroke="#000000" d="M106.7146,-72.5708C110.8537,-64.2927 115.8948,-54.2104 120.5124,-44.9752"/>
<polygon fill="#000000" stroke="#000000" points="123.7739,-46.2784 125.1156,-35.7689 117.5129,-43.1479 123.7739,-46.2784"/>
</g>
<!-- D -->
<g id="node3" class="node">
<title>D</title>
<ellipse fill="none" stroke="#000000" cx="27" cy="-162" rx="27" ry="18"/>
<text text-anchor="middle" x="27" y="-157.8" font-family="Times,serif" font-size="14.00" fill="#000000">D</text>
</g>
<!-- D&#45;&gt;DEF -->
<g id="edge1" class="edge">
<title>D&#45;&gt;DEF</title>
<path fill="none" stroke="#000000" d="M42.0573,-146.7307C51.847,-136.803 64.7831,-123.6847 75.7497,-112.5637"/>
<polygon fill="#000000" stroke="#000000" points="78.4351,-114.8252 82.9644,-105.2473 73.4508,-109.9102 78.4351,-114.8252"/>
</g>
<!-- EF -->
<g id="node4" class="node">
<title>EF</title>
<ellipse fill="none" stroke="#000000" cx="99" cy="-162" rx="27" ry="18"/>
<text text-anchor="middle" x="99" y="-157.8" font-family="Times,serif" font-size="14.00" fill="#000000">EF</text>
</g>
<!-- EF&#45;&gt;DEF -->
<g id="edge4" class="edge">
<title>EF&#45;&gt;DEF</title>
<path fill="none" stroke="#000000" d="M98.7477,-143.8314C98.6407,-136.131 98.5135,-126.9743 98.3947,-118.4166"/>
<polygon fill="#000000" stroke="#000000" points="101.8944,-118.3637 98.2557,-108.4133 94.8951,-118.4609 101.8944,-118.3637"/>
</g>
<!-- E -->
<g id="node5" class="node">
<title>E</title>
<ellipse fill="none" stroke="#000000" cx="45" cy="-234" rx="27" ry="18"/>
<text text-anchor="middle" x="45" y="-229.8" font-family="Times,serif" font-size="14.00" fill="#000000">E</text>
</g>
<!-- E&#45;&gt;EF -->
<g id="edge2" class="edge">
<title>E&#45;&gt;EF</title>
<path fill="none" stroke="#000000" d="M57.2534,-217.6621C64.1577,-208.4564 72.9177,-196.7764 80.6285,-186.4953"/>
<polygon fill="#000000" stroke="#000000" points="83.595,-188.3733 86.7951,-178.2733 77.995,-184.1733 83.595,-188.3733"/>
</g>
<!-- F -->
<g id="node6" class="node">
<title>F</title>
<ellipse fill="none" stroke="#000000" cx="117" cy="-234" rx="27" ry="18"/>
<text text-anchor="middle" x="117" y="-229.8" font-family="Times,serif" font-size="14.00" fill="#000000">F</text>
</g>
<!-- F&#45;&gt;EF -->
<g id="edge3" class="edge">
<title>F&#45;&gt;EF</title>
<path fill="none" stroke="#000000" d="M112.5506,-216.2022C110.5602,-208.2406 108.1668,-198.6671 105.9489,-189.7957"/>
<polygon fill="#000000" stroke="#000000" points="109.2816,-188.6951 103.4606,-179.8425 102.4906,-190.3929 109.2816,-188.6951"/>
</g>
<!-- ABC -->
<g id="node7" class="node">
<title>ABC</title>
<ellipse fill="none" stroke="#000000" cx="171" cy="-90" rx="28.0822" ry="18"/>
<text text-anchor="middle" x="171" y="-85.8" font-family="Times,serif" font-size="14.00" fill="#000000">ABC</text>
</g>
<!-- ABC&#45;&gt;ABCDEF -->
<g id="edge10" class="edge">
<title>ABC&#45;&gt;ABCDEF</title>
<path fill="none" stroke="#000000" d="M162.0433,-72.5708C157.7445,-64.2055 152.499,-53.998 147.7125,-44.6839"/>
<polygon fill="#000000" stroke="#000000" points="150.815,-43.0634 143.1312,-35.7689 144.589,-46.263 150.815,-43.0634"/>
</g>
<!-- A -->
<g id="node8" class="node">
<title>A</title>
<ellipse fill="none" stroke="#000000" cx="171" cy="-162" rx="27" ry="18"/>
<text text-anchor="middle" x="171" y="-157.8" font-family="Times,serif" font-size="14.00" fill="#000000">A</text>
</g>
<!-- A&#45;&gt;ABC -->
<g id="edge6" class="edge">
<title>A&#45;&gt;ABC</title>
<path fill="none" stroke="#000000" d="M171,-143.8314C171,-136.131 171,-126.9743 171,-118.4166"/>
<polygon fill="#000000" stroke="#000000" points="174.5001,-118.4132 171,-108.4133 167.5001,-118.4133 174.5001,-118.4132"/>
</g>
<!-- BC -->
<g id="node9" class="node">
<title>BC</title>
<ellipse fill="none" stroke="#000000" cx="243" cy="-162" rx="27" ry="18"/>
<text text-anchor="middle" x="243" y="-157.8" font-family="Times,serif" font-size="14.00" fill="#000000">BC</text>
</g>
<!-- BC&#45;&gt;ABC -->
<g id="edge9" class="edge">
<title>BC&#45;&gt;ABC</title>
<path fill="none" stroke="#000000" d="M227.7307,-146.7307C217.803,-136.803 204.6847,-123.6847 193.5637,-112.5637"/>
<polygon fill="#000000" stroke="#000000" points="195.7933,-109.8436 186.2473,-105.2473 190.8436,-114.7933 195.7933,-109.8436"/>
</g>
<!-- B -->
<g id="node10" class="node">
<title>B</title>
<ellipse fill="none" stroke="#000000" cx="207" cy="-234" rx="27" ry="18"/>
<text text-anchor="middle" x="207" y="-229.8" font-family="Times,serif" font-size="14.00" fill="#000000">B</text>
</g>
<!-- B&#45;&gt;BC -->
<g id="edge7" class="edge">
<title>B&#45;&gt;BC</title>
<path fill="none" stroke="#000000" d="M215.7146,-216.5708C219.9597,-208.0807 225.1536,-197.6929 229.8663,-188.2674"/>
<polygon fill="#000000" stroke="#000000" points="233.024,-189.7782 234.3657,-179.2687 226.763,-186.6477 233.024,-189.7782"/>
</g>
<!-- C -->
<g id="node11" class="node">
<title>C</title>
<ellipse fill="none" stroke="#000000" cx="279" cy="-234" rx="27" ry="18"/>
<text text-anchor="middle" x="279" y="-229.8" font-family="Times,serif" font-size="14.00" fill="#000000">C</text>
</g>
<!-- C&#45;&gt;BC -->
<g id="edge8" class="edge">
<title>C&#45;&gt;BC</title>
<path fill="none" stroke="#000000" d="M270.2854,-216.5708C266.0403,-208.0807 260.8464,-197.6929 256.1337,-188.2674"/>
<polygon fill="#000000" stroke="#000000" points="259.237,-186.6477 251.6343,-179.2687 252.976,-189.7782 259.237,-186.6477"/>
</g>
</g>
</svg>
